<svg height="48pt" viewBox="0 0 48 48" width="48pt" xmlns="http://www.w3.org/2000/svg" xmlns:xlink="http://www.w3.org/1999/xlink"><linearGradient id="a"><stop offset="0" stop-color="#b2fefa"/><stop offset=".98260869565" stop-color="#0ed2f7"/></linearGradient><linearGradient id="b" x1="0" x2="1" xlink:href="#a" y1=".5" y2=".5"/><linearGradient id="c" gradientUnits="userSpaceOnUse" x1="0" x2="48" xlink:href="#a" y1="24" y2="24"/><linearGradient id="d" gradientTransform="matrix(16 0 0 12 16 18)" gradientUnits="userSpaceOnUse" x1="0" x2="1" xlink:href="#a" y1=".5" y2=".5"/><path d="m20.376 24c0-2 1.624-3.624 3.624-3.624s3.624 1.624 3.624 3.624-1.624 3.624-3.624 3.624-3.624-1.624-3.624-3.624z" fill="none" stroke="url(#b)" stroke-linecap="square" stroke-miterlimit="3" stroke-width="2"/><g fill-rule="evenodd"><path d="m12.375 24.028c.39-.515.792-1.017 1.231-1.477.792-.835 1.657-1.532 2.608-2.103 1.035-.626 2.144-1.086 3.29-1.393 1.486-.39 3.009-.598 4.533-.626 1.498-.028 2.997.139 4.472.487 1.121.279 2.217.724 3.229 1.323.95.571 1.815 1.282 2.583 2.117.463.502.902 1.031 1.304 1.616-.39.515-.792 1.017-1.231 1.477-.792.835-1.657 1.532-2.608 2.103-1.035.626-2.144 1.086-3.29 1.393-1.486.39-3.009.598-4.533.626-1.498.028-2.997-.139-4.472-.487-1.121-.279-2.217-.724-3.229-1.323-.95-.571-1.815-1.282-2.583-2.117-.463-.502-.902-1.031-1.304-1.616zm-5.255-1.234c.418-.883 1.685-2.75 3.184-4.337 1.096-1.157 2.315-2.145 3.643-2.939 1.414-.85 2.912-1.491 4.46-1.895 1.828-.473 3.692-.738 5.556-.766 1.865-.027 3.729.168 5.545.613 1.559.376 3.07.989 4.484 1.839 1.34.794 2.583 1.81 3.68 2.994 1.523 1.658 2.802 3.594 3.229 4.538.296.655.287 1.715-.021 2.365-.418.883-1.685 2.75-3.184 4.337-1.096 1.157-2.315 2.145-3.643 2.939-1.414.85-2.912 1.491-4.46 1.895-1.828.473-3.692.738-5.556.766-1.865.027-3.729-.168-5.545-.613-1.559-.376-3.07-.989-4.484-1.839-1.34-.794-2.583-1.81-3.68-2.994-1.523-1.658-2.802-3.594-3.229-4.538-.296-.655-.287-1.715.021-2.365zm10.66 20.216c-1.049-.342-2.178.231-2.52 1.28-.342 1.049.231 2.178 1.28 2.52 2.4.79 4.91 1.19 7.43 1.19 8.35 0 16.13-4.34 20.49-11.46 2.31-3.76 3.54-8.1 3.54-12.51 0-8.35-4.34-16.13-11.46-20.49-3.76-2.31-8.09-3.54-12.51-3.54-8.35 0-16.13 4.34-20.49 11.46-2.31 3.76-3.54 8.09-3.54 12.51 0 5.64 1.98 11.11 5.59 15.44.712.844 1.978.956 2.825.25.847-.706.957-1.97.245-2.82-3.01-3.61-4.66-8.16-4.66-12.87 0-3.67 1.02-7.28 2.95-10.42 3.64-5.93 10.12-9.55 17.08-9.55 3.68 0 7.28 1.02 10.42 2.95 5.93 3.64 9.55 10.12 9.55 17.08 0 3.67-1.02 7.28-2.95 10.42-3.64 5.93-10.12 9.55-17.08 9.55-2.1 0-4.19-.33-6.19-.99z" fill="url(#c)"/><path d="m24.6 23.4v-5.4h-1.2v5.4h-7.4v1.2h7.4v5.4h1.2v-5.4h7.4v-1.2z" fill="url(#d)"/></g></svg>